<svg xmlns="http://www.w3.org/2000/svg" viewBox="0 0 512 512">
  <defs>
    <radialGradient id="sky" cx="50%" cy="42%" r="80%">
      <stop offset="0%" stop-color="#1a2150"/>
      <stop offset="100%" stop-color="#05060f"/>
    </radialGradient>
    <radialGradient id="core" cx="50%" cy="50%" r="50%">
      <stop offset="0%" stop-color="#fff6d8"/>
      <stop offset="45%" stop-color="#ffb347"/>
      <stop offset="100%" stop-color="#ff5a8a" stop-opacity="0"/>
    </radialGradient>
  </defs>
  <rect width="512" height="512" fill="url(#sky)"/>
  <g stroke="#ffb347" stroke-width="8" stroke-linecap="round">
    <line x1="256" y1="236" x2="256" y2="152"/>
    <line x1="256" y1="236" x2="256" y2="320"/>
    <line x1="214" y1="236" x2="160" y2="236"/>
    <line x1="298" y1="236" x2="352" y2="236"/>
    <line x1="256" y1="236" x2="196" y2="176"/>
    <line x1="256" y1="236" x2="316" y2="176"/>
    <line x1="256" y1="236" x2="196" y2="296"/>
    <line x1="256" y1="236" x2="316" y2="296"/>
  </g>
  <g fill="#ff5a8a">
    <circle cx="256" cy="144" r="9"/>
    <circle cx="256" cy="328" r="9"/>
    <circle cx="152" cy="236" r="9"/>
    <circle cx="360" cy="236" r="9"/>
    <circle cx="190" cy="170" r="9"/>
    <circle cx="322" cy="170" r="9"/>
    <circle cx="190" cy="302" r="9"/>
    <circle cx="322" cy="302" r="9"/>
  </g>
  <circle cx="256" cy="236" r="48" fill="url(#core)"/>
</svg>
